HIERARCHY
ROOT Hips
{
 OFFSET 0.000000 0.000000 0.000000
 CHANNELS 6 Xposition Yposition Zposition Yrotation Xrotation Zrotation
 JOINT Chest
 {
  OFFSET 0.000000 9.585900 0.002600
  CHANNELS 3 Yrotation Xrotation Zrotation
  JOINT Chest2
  {
   OFFSET 0.000000 9.601200 -0.005300
   CHANNELS 3 Yrotation Xrotation Zrotation
   JOINT Chest3
   {
    OFFSET 0.000000 9.561800 0.000000
    CHANNELS 3 Yrotation Xrotation Zrotation
    JOINT Chest4
    {
     OFFSET 0.000000 9.552100 0.000000
     CHANNELS 3 Yrotation Xrotation Zrotation
     JOINT Neck
     {
      OFFSET 0.000000 14.453000 0.000000
      CHANNELS 3 Yrotation Xrotation Zrotation
      JOINT Head
      {
       OFFSET 0.000000 8.936500 -0.011300
       CHANNELS 3 Yrotation Xrotation Zrotation
       End Site
       {
        OFFSET 0.000000 17.073600 -0.006000
       }
      }
     }
     JOINT RightCollar
     {
      OFFSET -2.921100 9.558500 0.000000
      CHANNELS 3 Yrotation Xrotation Zrotation
      JOINT RightShoulder
      {
       OFFSET -13.519700 0.000000 0.000000
       CHANNELS 3 Yrotation Xrotation Zrotation
       JOINT RightElbow
       {
        OFFSET 0.000000 -29.696600 0.000000
        CHANNELS 3 Yrotation Xrotation Zrotation
        JOINT RightWrist
        {
         OFFSET 0.000000 -24.004700 0.000000
         CHANNELS 3 Yrotation Xrotation Zrotation
         End Site
         {
          OFFSET 0.000000 -17.728500 0.000000
         }
        }
       }
      }
     }
     JOINT LeftCollar
     {
      OFFSET 2.921100 9.558500 0.000000
      CHANNELS 3 Yrotation Xrotation Zrotation
      JOINT LeftShoulder
      {
       OFFSET 13.519700 0.000000 0.000000
       CHANNELS 3 Yrotation Xrotation Zrotation
       JOINT LeftElbow
       {
        OFFSET 0.000000 -29.696600 0.000000
        CHANNELS 3 Yrotation Xrotation Zrotation
        JOINT LeftWrist
        {
         OFFSET 0.000000 -24.004700 0.000000
         CHANNELS 3 Yrotation Xrotation Zrotation
         End Site
         {
          OFFSET 0.000000 -17.728500 0.000000
         }
        }
       }
      }
     }
    }
   }
  }
 }
 JOINT RightHip
 {
  OFFSET -7.771700 -0.012900 -0.001300
  CHANNELS 3 Yrotation Xrotation Zrotation
  JOINT RightKnee
  {
   OFFSET 0.000000 -40.869800 0.001200
   CHANNELS 3 Yrotation Xrotation Zrotation
   JOINT RightAnkle
   {
    OFFSET 0.000000 -39.717900 0.002100
    CHANNELS 3 Yrotation Xrotation Zrotation
    JOINT RightToe
    {
     OFFSET 0.000000 -4.965400 11.033500
     CHANNELS 3 Yrotation Xrotation Zrotation
     End Site
     {
      OFFSET 0.000000 -1.423100 5.872300
     }
    }
   }
  }
 }
 JOINT LeftHip
 {
  OFFSET 7.771700 -0.012900 -0.001300
  CHANNELS 3 Yrotation Xrotation Zrotation
  JOINT LeftKnee
  {
   OFFSET 0.000000 -40.869800 0.001200
   CHANNELS 3 Yrotation Xrotation Zrotation
   JOINT LeftAnkle
   {
    OFFSET 0.000000 -39.717900 0.002100
    CHANNELS 3 Yrotation Xrotation Zrotation
    JOINT LeftToe
    {
     OFFSET 0.000000 -4.965400 11.033500
     CHANNELS 3 Yrotation Xrotation Zrotation
     End Site
     {
      OFFSET 0.000000 -1.423100 5.872300
     }
    }
   }
  }
 }
}
MOTION
Frames: 8
Frame Time: 0.008333
-43.126833 52.080042 21.614464 175.276052 -35.322109 1.956550 -0.036282 11.835382 -2.228744 0.009623 0.850562 -0.097685 0.015521 1.455897 -0.167278 0.013581 10.829252 -1.247762 -4.675358 21.371028 -1.937476 -4.593241 -2.845580 -1.016250 2.203151 4.834404 2.379850 19.432158 -14.253748 -76.597737 110.968336 -53.742711 -168.243491 2.315853 2.871208 -20.362527 -0.219107 5.453062 -6.985473 -15.524602 -22.435930 67.121076 -106.305520 -45.492742 171.943707 11.387902 -8.113882 17.982354 -6.177730 -47.537136 0.939007 -44.410931 80.906244 -52.220501 -4.978375 -5.411638 7.772661 1.501635 0.107806 0.333748 4.205572 -44.679206 -3.045509 39.161309 82.261473 45.594167 0.647710 -11.380164 -3.866900 -0.632880 0.825239 -0.221135
-43.137929 52.055686 21.631157 175.378538 -35.560202 1.971373 -0.011995 11.852976 -2.284439 0.014286 0.845390 -0.098406 0.023478 1.447334 -0.168364 0.073232 10.798945 -1.255099 -4.825204 21.429789 -1.923510 -4.761553 -2.769436 -0.968073 2.056414 4.926967 2.603966 18.127702 -14.908356 -76.555218 111.988105 -52.789411 -169.219190 2.413235 2.962034 -20.899558 -0.087996 5.426439 -6.985774 -14.949818 -22.888525 67.044718 -105.256070 -44.431917 171.568747 10.712474 -7.965763 20.557614 -6.249908 -47.364838 0.810030 -44.953644 80.967736 -52.763092 -4.984417 -5.769725 7.831180 1.492848 0.182383 0.330259 4.182926 -44.460709 -3.097451 39.042384 82.238620 45.391171 0.641503 -11.329110 -3.751508 -0.663593 0.835933 -0.264006
-43.140762 52.031900 21.646940 175.401103 -35.769082 1.942693 0.090491 11.846441 -2.250062 0.018582 0.840230 -0.098667 0.030896 1.438790 -0.168741 0.129363 10.768590 -1.257401 -4.980278 21.492349 -1.917660 -4.934069 -2.688202 -0.927561 1.923604 5.013940 2.861762 16.989075 -15.333841 -76.478934 112.325343 -51.793175 -169.548266 2.567604 3.189888 -21.435926 0.060868 5.478840 -6.952081 -14.428396 -23.102236 66.924858 -104.064997 -43.376900 171.115362 10.078465 -7.728215 22.758215 -6.312600 -47.188296 0.808818 -45.225080 81.008881 -53.039670 -4.994976 -6.111922 7.925890 1.444216 0.262771 0.313730 4.142098 -44.274763 -3.041178 38.997685 82.242466 45.311508 0.615247 -11.318196 -3.702850 -0.645456 0.861834 -0.273033
-43.157880 52.008735 21.662405 175.413026 -35.936833 1.967219 0.188020 11.799508 -2.267864 0.022728 0.835327 -0.098685 0.037998 1.430631 -0.168856 0.183968 10.739529 -1.257208 -5.135870 21.560538 -1.917292 -5.106267 -2.599971 -0.892867 1.792028 5.126934 3.137116 16.009912 -15.693089 -76.354781 112.174978 -50.798367 -169.327832 2.785289 3.476228 -22.054151 0.225462 5.611123 -6.880979 -13.980685 -23.081763 66.768373 -102.798070 -42.330543 170.639906 9.501057 -7.423237 24.573940 -6.400800 -47.081525 0.753094 -45.327969 81.108535 -53.192943 -4.938896 -6.417597 8.023333 1.337321 0.287011 0.275577 4.181883 -44.135060 -3.046023 39.124189 82.232533 45.368113 0.537133 -11.275316 -3.611160 -0.633190 0.855958 -0.274933
-43.177690 51.994688 21.666702 175.473341 -36.152787 1.950915 0.242919 11.797139 -2.277348 0.026584 0.830691 -0.098606 0.044636 1.422920 -0.168799 0.235246 10.712006 -1.255898 -5.286895 21.632742 -1.920981 -5.272899 -2.506969 -0.863576 1.666108 5.294638 3.410001 15.136530 -16.052665 -76.194802 111.811751 -49.836764 -168.819958 3.050473 3.779232 -22.743510 0.409996 5.815479 -6.773945 -13.587638 -22.859583 66.572396 -101.572493 -41.308975 170.207509 9.015927 -7.096809 26.010412 -6.543034 -46.920953 0.700666 -45.594213 81.208864 -53.498247 -4.878544 -6.727110 8.092830 1.255524 0.282826 0.253619 4.172207 -43.945385 -3.036001 39.263096 82.229108 45.457900 0.430993 -11.240907 -3.553779 -0.556399 0.857037 -0.248256
-43.194870 51.984939 21.666641 175.549120 -36.372507 1.884320 0.290183 11.793812 -2.245872 0.029746 0.826445 -0.098689 0.050135 1.415916 -0.168890 0.277585 10.686732 -1.256592 -5.428663 21.701172 -1.928151 -5.428774 -2.418455 -0.840165 1.557262 5.530862 3.662764 14.328441 -16.351271 -76.015063 111.366577 -48.923728 -168.261079 3.326678 4.072100 -23.451026 0.608689 6.072861 -6.644593 -13.196202 -22.488184 66.347741 -100.532219 -40.343510 169.893740 8.641007 -6.797630 27.077231 -6.707178 -46.738966 0.698134 -45.883474 81.289312 -53.809563 -4.849021 -7.019240 8.150020 1.198284 0.262942 0.246530 4.116988 -43.753042 -2.988266 39.253623 82.253246 45.448005 0.320445 -11.219849 -3.548991 -0.463617 0.836973 -0.201453
-43.219932 51.978006 21.663513 175.641402 -36.587645 1.836226 0.315022 11.783211 -2.241588 0.032254 0.822685 -0.098806 0.054407 1.409684 -0.169026 0.311088 10.664129 -1.258112 -5.560360 21.756234 -1.938951 -5.572725 -2.345823 -0.822871 1.466845 5.833660 3.881152 13.556041 -16.501939 -75.805251 110.874216 -48.054905 -167.799945 3.584204 4.328188 -24.145033 0.811217 6.366293 -6.517985 -12.782157 -22.023894 66.122756 -99.778806 -39.472850 169.732280 8.358148 -6.575425 27.790985 -6.837522 -46.563410 0.644335 -46.251831 81.358421 -54.195980 -4.829264 -7.295053 8.201771 1.157876 0.228235 0.249487 4.082314 -43.562314 -2.978198 39.448163 82.245433 45.610471 0.196666 -11.191342 -3.501355 -0.387362 0.820544 -0.171615
-43.246076 51.972700 21.658289 175.749351 -36.800741 1.773458 0.326264 11.773018 -2.230401 0.034344 0.819316 -0.098574 0.057945 1.403995 -0.168637 0.339476 10.643941 -1.255531 -5.682427 21.791163 -1.951941 -5.705392 -2.297286 -0.809965 1.393706 6.186154 4.062585 12.795871 -16.481654 -75.546156 110.362672 -47.213924 -167.491280 3.805064 4.544336 -24.810122 1.012793 6.681864 -6.414560 -12.375166 -21.517013 65.927673 -99.315672 -38.719170 169.687252 8.161311 -6.460673 28.165101 -6.959706 -46.386857 0.585805 -46.671192 81.417449 -54.621595 -4.817604 -7.542759 8.247881 1.127242 0.172196 0.258379 4.038518 -43.373010 -2.978173 39.708854 82.225130 45.855067 0.080536 -11.161800 -3.478214 -0.315283 0.802425 -0.130820
